<svg width="40" height="40" viewBox="0 0 40 40" fill="none" xmlns="http://www.w3.org/2000/svg">
<rect width="40" height="40" rx="8" fill="#EBEFFF"/>
<path fill-rule="evenodd" clip-rule="evenodd" d="M19.5002 31.9996L12.2005 31.9996C12.09 31.9996 12.0005 31.91 12.0005 31.7996L12.0005 22.9996L10.0005 22.9996L10.0005 30.9996C10.0005 31.3503 10.0005 31.687 10.0005 31.9999C10.0005 33.1045 10.8959 33.9996 12.0004 33.9997L21.9776 34.0002C22.7844 34.0003 23.5572 33.6754 24.1215 33.099L31.4296 25.6343C31.7956 25.2605 32.0005 24.7582 32.0005 24.2351L32.0005 9.00031C32.0005 8.64957 32.0005 8.31289 32.0005 8.00004C32.0005 6.89547 31.1051 6.00031 30.0005 6.00031L12.0005 6.00031C10.8959 6.00031 10.0005 6.89547 10.0005 8.00004C10.0005 8.31289 10.0005 8.64957 10.0005 9.00031L10.0005 10.9999L12.0005 10.9999L12.0005 8.20031C12.0005 8.08985 12.09 8.00031 12.2005 8.00031L29.8005 8.00031C29.9109 8.00031 30.0005 8.08985 30.0005 8.20031L30.0005 23.0002C30.0005 23.5525 29.5528 24.0002 29.0005 24.0002L24.0002 24.0002C22.8957 24.0002 22.0002 24.8957 22.0002 26.0002L22.0002 30.9999C22.0002 31.5523 21.5526 32.0001 21.0002 32C20.369 31.9998 19.6461 31.9996 19.5002 31.9996Z" fill="#446FFF"/>
<path d="M8.67998 18.6401C8.87731 18.6401 9.05065 18.6268 9.19998 18.6001C9.34931 18.5681 9.47465 18.5148 9.57598 18.4401C9.67731 18.3601 9.75198 18.2534 9.79998 18.1201C9.85331 17.9814 9.87998 17.8028 9.87998 17.5841V16.8801C9.87998 16.4801 9.77865 16.2081 9.57598 16.0641C9.37865 15.9148 9.07998 15.8401 8.67998 15.8401H8.07998V18.6401H8.67998ZM6.47998 20.0001V14.4801H8.67998C9.13331 14.4801 9.53598 14.5254 9.88798 14.6161C10.24 14.7014 10.536 14.8508 10.776 15.0641C11.0213 15.2774 11.2053 15.5628 11.328 15.9201C11.456 16.2721 11.52 16.7121 11.52 17.2401C11.52 17.7734 11.456 18.2188 11.328 18.5761C11.2053 18.9281 11.0213 19.2108 10.776 19.4241C10.536 19.6321 10.24 19.7814 9.88798 19.8721C9.53598 19.9574 9.13331 20.0001 8.67998 20.0001H6.47998Z" fill="#446FFF"/>
<path d="M17.7569 17.1601C17.7569 17.7361 17.6929 18.2134 17.5649 18.5921C17.4422 18.9708 17.2582 19.2748 17.0129 19.5041C16.7729 19.7281 16.4769 19.8881 16.1249 19.9841C15.7729 20.0748 15.3702 20.1201 14.9169 20.1201C14.4635 20.1201 14.0609 20.0748 13.7089 19.9841C13.3569 19.8881 13.0582 19.7281 12.8129 19.5041C12.5729 19.2748 12.3889 18.9708 12.2609 18.5921C12.1382 18.2134 12.0769 17.7361 12.0769 17.1601C12.0769 16.6214 12.1382 16.1734 12.2609 15.8161C12.3889 15.4588 12.5729 15.1734 12.8129 14.9601C13.0582 14.7414 13.3569 14.5868 13.7089 14.4961C14.0609 14.4054 14.4635 14.3601 14.9169 14.3601C15.3702 14.3601 15.7729 14.4054 16.1249 14.4961C16.4769 14.5868 16.7729 14.7414 17.0129 14.9601C17.2582 15.1734 17.4422 15.4588 17.5649 15.8161C17.6929 16.1734 17.7569 16.6214 17.7569 17.1601ZM16.1169 16.8401C16.1169 16.6108 16.0902 16.4188 16.0369 16.2641C15.9889 16.1094 15.9142 15.9868 15.8129 15.8961C15.7115 15.8001 15.5862 15.7334 15.4369 15.6961C15.2875 15.6588 15.1142 15.6401 14.9169 15.6401C14.7195 15.6401 14.5462 15.6588 14.3969 15.6961C14.2475 15.7334 14.1222 15.8001 14.0209 15.8961C13.9195 15.9868 13.8422 16.1094 13.7889 16.2641C13.7409 16.4188 13.7169 16.6108 13.7169 16.8401V17.6241C13.7169 17.8801 13.7409 18.0881 13.7889 18.2481C13.8422 18.4028 13.9195 18.5254 14.0209 18.6161C14.1222 18.7014 14.2475 18.7601 14.3969 18.7921C14.5462 18.8241 14.7195 18.8401 14.9169 18.8401C15.1142 18.8401 15.2875 18.8241 15.4369 18.7921C15.5862 18.7601 15.7115 18.7014 15.8129 18.6161C15.9142 18.5254 15.9889 18.4028 16.0369 18.2481C16.0902 18.0881 16.1169 17.8801 16.1169 17.6241V16.8401Z" fill="#446FFF"/>
<path d="M20.943 20.1201C20.5324 20.1201 20.1644 20.0748 19.839 19.9841C19.5137 19.8934 19.239 19.7361 19.015 19.5121C18.791 19.2881 18.6177 18.9894 18.495 18.6161C18.3777 18.2428 18.319 17.7761 18.319 17.2161C18.319 16.6774 18.3777 16.2268 18.495 15.8641C18.6177 15.4961 18.791 15.2028 19.015 14.9841C19.239 14.7601 19.5137 14.6001 19.839 14.5041C20.1644 14.4081 20.5324 14.3601 20.943 14.3601C21.3164 14.3601 21.655 14.3974 21.959 14.4721C22.263 14.5414 22.5244 14.6561 22.743 14.8161C22.9617 14.9761 23.135 15.1868 23.263 15.4481C23.3964 15.7041 23.479 16.0188 23.511 16.3921H21.871C21.855 16.2374 21.8204 16.1121 21.767 16.0161C21.719 15.9148 21.655 15.8374 21.575 15.7841C21.495 15.7254 21.4017 15.6881 21.295 15.6721C21.1884 15.6508 21.071 15.6401 20.943 15.6401C20.8044 15.6401 20.6737 15.6534 20.551 15.6801C20.4337 15.7014 20.3297 15.7521 20.239 15.8321C20.1537 15.9068 20.0844 16.0188 20.031 16.1681C19.983 16.3121 19.959 16.5041 19.959 16.7441V17.7201C19.959 17.9601 19.983 18.1548 20.031 18.3041C20.079 18.4481 20.1457 18.5601 20.231 18.6401C20.3217 18.7201 20.4257 18.7734 20.543 18.8001C20.6657 18.8268 20.799 18.8401 20.943 18.8401C21.071 18.8401 21.1857 18.8294 21.287 18.8081C21.3937 18.7868 21.487 18.7468 21.567 18.6881C21.647 18.6294 21.7137 18.5521 21.767 18.4561C21.8204 18.3548 21.8577 18.2268 21.879 18.0721H23.519C23.4764 18.4454 23.3884 18.7628 23.255 19.0241C23.127 19.2801 22.9537 19.4908 22.735 19.6561C22.5164 19.8161 22.255 19.9334 21.951 20.0081C21.6524 20.0828 21.3164 20.1201 20.943 20.1201Z" fill="#446FFF"/>
</svg>
