<?xml version="1.0" standalone="no"?>
<!DOCTYPE svg PUBLIC "-//W3C//DTD SVG 20010904//EN"
 "http://www.w3.org/TR/2001/REC-SVG-20010904/DTD/svg10.dtd">
<svg version="1.0" xmlns="http://www.w3.org/2000/svg"
 width="5157.000000pt" height="3438.000000pt" viewBox="0 0 5157.000000 3438.000000"
 preserveAspectRatio="xMidYMid meet">

<g transform="translate(0.000000,3438.000000) scale(0.100000,-0.100000)"
fill="#000000" stroke="none">
<path d="M20546 29759 c-545 -32 -1069 -138 -1596 -322 -1138 -397 -2341 -964
-3279 -1545 -354 -219 -388 -245 -430 -343 -29 -66 -32 -117 -16 -242 76 -583
255 -1080 570 -1580 112 -179 145 -194 373 -172 1086 109 2336 393 3572 810
384 130 622 225 885 355 243 120 428 225 640 365 157 104 345 241 345 252 0
27 -45 304 -71 437 -136 712 -382 1347 -728 1878 -70 109 -78 118 -106 116
-16 0 -88 -4 -159 -9z m-760 -919 c145 -37 250 -97 368 -209 82 -79 135 -155
186 -265 65 -141 75 -191 75 -371 0 -182 -15 -248 -86 -386 -100 -191 -274
-332 -479 -386 -98 -26 -273 -23 -374 5 -234 67 -440 244 -541 467 -62 134
-79 220 -79 380 1 122 5 152 28 228 84 281 272 467 541 537 99 26 258 26 361
0z m-1901 -944 c190 -50 353 -221 400 -417 43 -183 -7 -385 -126 -509 -231
-241 -621 -191 -803 104 -196 317 -67 716 267 821 55 17 199 18 262 1z"/>
<path d="M32114 25605 c-50 -76 -230 -191 -369 -235 -107 -34 -338 -40 -458
-11 -107 25 -217 75 -303 136 l-64 46 -39 -21 c-22 -11 -57 -34 -76 -52 -31
-26 -36 -36 -33 -67 2 -29 10 -41 40 -60 l38 -24 -40 -37 c-51 -47 -54 -86
-10 -123 16 -14 35 -27 42 -30 8 -3 -3 -18 -30 -42 -38 -33 -43 -42 -40 -74 2
-29 10 -41 40 -60 l38 -24 -40 -37 c-72 -67 -48 -121 72 -165 l63 -23 11 -89
c6 -49 21 -110 32 -136 43 -97 175 -193 318 -231 93 -26 246 -31 334 -12 174
37 337 152 402 284 30 61 33 74 33 163 l0 96 45 16 c67 24 152 78 169 108 21
38 8 75 -37 101 l-39 22 44 41 c23 23 43 50 43 61 0 28 -26 61 -61 80 l-30 15
40 30 c66 48 65 108 -4 145 l-32 17 43 42 c24 23 44 51 44 62 0 34 -38 71 -96
92 -69 26 -70 26 -90 -4z m56 -214 c0 -12 -97 -47 -212 -76 -271 -68 -677 -92
-918 -55 -78 13 -93 17 -86 28 3 5 38 3 77 -4 274 -46 737 -10 1009 80 115 37
130 40 130 27z m0 -195 c-38 -36 -275 -97 -490 -128 -127 -17 -570 -18 -665 0
-38 7 -85 17 -102 23 -40 13 -45 34 -5 24 219 -56 567 -60 867 -9 114 19 271
59 333 84 59 24 83 26 62 6z m5 -196 c-8 -14 -182 -68 -285 -90 -190 -39 -337
-53 -560 -53 -162 0 -239 4 -315 17 -108 20 -121 24 -108 36 4 5 35 2 68 -5
280 -66 858 -19 1140 93 48 19 71 20 60 2z m-145 -240 c0 -23 -242 -71 -459
-90 -86 -8 -202 -10 -325 -6 -220 7 -266 13 -266 32 0 9 8 12 28 8 95 -18 192
-23 377 -19 219 4 408 26 550 64 83 23 95 24 95 11z"/>
<path d="M31700 23114 c-71 -19 -154 -69 -191 -116 -47 -58 -62 -112 -55 -199
6 -95 -12 -131 -75 -150 -30 -9 -48 -23 -65 -50 -33 -53 -50 -59 -153 -59
-106 0 -176 -22 -237 -74 -53 -45 -104 -142 -111 -210 -8 -82 10 -121 94 -203
85 -83 91 -107 47 -192 -32 -61 -41 -134 -24 -186 17 -52 85 -124 140 -148 42
-19 45 -19 55 -2 57 97 172 143 254 100 41 -21 100 -91 144 -171 21 -38 92
-139 158 -224 65 -85 158 -208 205 -272 l86 -118 -164 -252 c-90 -138 -176
-261 -191 -272 -82 -61 -273 18 -452 187 -109 102 -134 149 -117 217 10 39 9
40 -17 40 -15 0 -32 5 -38 11 -14 14 -275 14 -383 -1 -117 -16 -327 -71 -441
-115 -52 -20 -201 -91 -332 -156 -260 -131 -430 -208 -723 -330 -1053 -435
-2276 -821 -3164 -999 -479 -96 -725 -124 -1080 -124 -276 0 -367 9 -523 54
-83 23 -121 11 -136 -47 -35 -130 -38 -481 -6 -701 63 -439 235 -877 501
-1278 41 -61 74 -114 74 -118 0 -19 -309 -137 -439 -167 -165 -39 -173 -85
-48 -276 261 -400 670 -556 1116 -427 456 133 1321 655 2521 1523 232 167 539
396 740 551 69 53 143 109 165 126 l39 29 -21 -35 c-11 -19 -114 -199 -228
-400 -235 -413 -695 -1220 -703 -1234 -3 -5 0 -6 6 -2 6 4 31 -5 54 -20 144
-91 446 -212 616 -246 l62 -13 -307 -380 c-168 -209 -391 -485 -495 -613
l-188 -232 -31 -148 c-48 -229 -85 -380 -125 -502 -48 -150 -66 -190 -105
-234 -86 -98 -322 -154 -470 -110 -79 23 -118 70 -166 193 -35 94 -53 122 -53
86 0 -23 -73 -165 -85 -165 -5 0 -29 9 -53 20 -40 18 -43 22 -37 48 5 25 -1
34 -43 73 -26 24 -56 49 -66 54 -16 9 -14 18 25 105 23 52 45 99 49 103 7 9
127 -37 354 -134 76 -33 141 -58 143 -55 3 3 -5 62 -17 133 -12 70 -23 177
-24 236 l-1 108 -50 14 c-84 24 -265 56 -351 62 -130 9 -177 -18 -230 -132
-32 -69 -32 -118 2 -144 l26 -21 -42 -100 c-24 -55 -44 -100 -44 -100 -1 0
-30 9 -65 20 -72 23 -96 19 -127 -18 l-21 -26 -367 158 c-328 142 -371 158
-408 153 -23 -3 -53 -14 -67 -25 -72 -53 -305 -515 -449 -890 -34 -90 -35 -96
-23 -143 l13 -49 -185 -457 c-102 -252 -188 -473 -192 -492 -23 -108 6 -246
70 -333 52 -71 111 -108 315 -199 102 -45 250 -111 330 -146 80 -35 149 -68
153 -72 5 -5 -58 -111 -139 -237 -239 -372 -654 -1013 -908 -1403 -131 -200
-242 -375 -247 -388 -13 -36 -11 -96 6 -136 28 -68 196 -215 364 -319 46 -28
63 -33 115 -33 43 0 71 6 95 20 21 13 335 393 854 1035 451 558 822 1018 826
1022 9 10 851 -368 851 -382 0 -5 -22 -100 -50 -211 -69 -284 -76 -334 -57
-439 16 -94 53 -190 72 -190 21 0 146 111 215 191 81 95 463 576 629 792 157
206 215 291 257 380 36 77 84 234 84 274 0 22 -5 19 -49 -29 l-50 -53 53 123
c47 112 56 126 91 145 34 19 45 36 82 117 23 52 56 135 74 183 26 71 35 87 48
81 70 -29 152 -54 181 -54 72 0 107 29 370 301 140 145 325 336 410 424 85 88
203 209 261 270 59 60 411 425 784 810 373 385 689 718 703 740 133 209 42
517 -184 621 -87 41 -150 48 -282 35 -205 -21 -314 -30 -437 -36 -66 -3 -147
-7 -180 -10 -33 -2 -143 -7 -245 -11 -102 -3 -188 -8 -192 -11 -5 -2 -8 0 -8
6 0 11 79 114 1279 1661 360 465 712 919 782 1009 70 91 146 197 169 238 136
236 189 474 176 778 -3 83 -12 183 -19 223 l-13 73 330 318 c182 175 727 697
1211 1160 484 463 888 855 899 872 11 19 18 48 18 80 0 44 -6 60 -55 132 -61
91 -171 214 -293 328 -88 82 -123 96 -186 78 -21 -6 -268 -206 -677 -549 -353
-297 -646 -540 -650 -540 -4 0 -29 45 -55 100 -51 108 -75 130 -138 130 -58 0
-138 -70 -253 -220 -85 -111 -102 -128 -144 -140 -43 -12 -116 11 -162 52 -23
20 -103 144 -208 320 -133 223 -171 294 -171 321 0 54 62 167 123 225 56 52
63 55 217 92 207 50 367 172 385 294 14 88 -44 215 -145 317 -71 72 -136 110
-218 128 -66 14 -84 13 -152 -5z m-6181 -8502 c53 -26 77 -52 49 -52 -24 0
-137 52 -142 66 -9 22 33 16 93 -14z m-299 -74 c1 -22 -65 -138 -77 -138 -19
0 -16 15 13 73 30 59 43 77 55 77 5 0 9 -6 9 -12z m717 -105 c63 -28 89 -53
53 -53 -31 0 -140 52 -140 66 0 20 17 17 87 -13z m3343 2 c0 -2 -32 -48 -70
-102 -39 -54 -208 -295 -378 -535 l-307 -437 -41 24 c-22 13 -158 82 -302 154
l-262 131 132 163 c72 89 161 199 197 244 l65 81 381 111 c209 60 423 123 475
140 103 32 110 33 110 26z m-2862 -217 c16 -14 15 -28 -2 -28 -19 0 -130 51
-138 64 -15 23 17 23 71 -1 31 -14 62 -29 69 -35z m-1402 -113 c-4 -14 -18
-51 -32 -82 -19 -43 -27 -54 -36 -45 -18 18 39 152 64 152 6 0 7 -11 4 -25z
m1768 -45 c40 -18 66 -35 66 -45 0 -21 -8 -19 -84 15 -63 29 -74 39 -59 53 8
9 2 11 77 -23z m423 -187 c63 -30 77 -43 63 -57 -6 -6 -34 2 -72 19 -73 32
-83 39 -74 54 10 16 19 14 83 -16z m-2162 -170 c52 -36 70 -63 42 -63 -16 0
-109 66 -120 85 -15 27 22 16 78 -22z m2578 -22 c67 -30 86 -46 70 -62 -10
-10 -153 54 -153 69 0 8 10 22 16 22 1 0 31 -13 67 -29z m-2823 -165 c0 -8
-14 -45 -30 -82 -22 -48 -34 -64 -42 -56 -14 14 39 152 59 152 7 0 13 -6 13
-14z m3243 -36 c62 -28 87 -53 67 -65 -11 -7 -150 61 -150 73 0 8 10 22 16 22
1 0 32 -13 67 -30z m-2563 -96 c0 -22 -19 -16 -74 23 -60 44 -69 55 -54 65 15
8 128 -70 128 -88z m2975 -115 c36 -20 55 -37 55 -49 0 -25 -21 -36 -34 -19
-6 8 -29 26 -51 39 -44 26 -56 40 -49 52 8 13 22 9 79 -23z m-2657 -95 c51
-34 71 -58 58 -71 -11 -11 -136 79 -136 99 0 16 27 7 78 -28z m771 -96 c152
-67 286 -128 298 -135 25 -17 53 -71 53 -105 0 -32 -234 -457 -271 -490 -52
-49 -85 -41 -345 73 -133 59 -241 112 -257 128 -49 48 -46 74 33 332 40 128
78 246 86 260 14 29 66 58 103 59 13 0 148 -55 300 -122z m-1945 13 c9 -13
-47 -141 -61 -141 -17 0 -16 20 3 66 9 22 20 49 25 62 9 23 24 29 33 13z
m3792 -269 c-19 -74 -30 -92 -47 -75 -8 8 -6 29 7 74 20 74 32 95 48 79 7 -7
5 -30 -8 -78z m-3897 -227 c23 -73 26 -95 10 -95 -18 0 -65 141 -51 155 13 12
20 1 41 -60z m2506 -16 c5 -6 5 -13 -1 -19 -7 -7 -33 -5 -82 7 -64 15 -83 28
-66 45 7 7 136 -21 149 -33z m411 -91 c43 -15 57 -38 22 -38 -55 1 -133 27
-137 45 -3 16 2 17 37 11 22 -3 57 -12 78 -18z m832 -92 c-10 -28 -26 -61 -34
-74 -15 -23 -34 -22 -34 2 0 20 50 130 63 138 23 14 25 -16 5 -66z m-404 -7
c52 -11 78 -30 63 -45 -8 -8 -137 22 -149 34 -13 13 0 35 16 29 6 -2 37 -10
70 -18z m-3017 -86 c58 -25 82 -46 65 -57 -13 -8 -137 52 -140 68 -5 22 3 20
75 -11z m3303 -142 c0 -13 -26 -32 -33 -24 -14 13 -6 33 13 33 11 0 20 -4 20
-9z m-2874 -51 c41 -18 64 -34 61 -42 -6 -16 -16 -14 -89 19 -32 14 -58 32
-58 39 0 20 12 18 86 -16z m420 -186 c71 -33 68 -30 61 -48 -5 -13 -18 -10
-77 16 -38 17 -70 37 -70 44 0 20 20 17 86 -12z m2309 -64 c6 -10 -52 -131
-69 -142 -27 -18 -23 24 10 85 34 65 47 77 59 57z m-1889 -126 c61 -27 79 -43
65 -57 -10 -10 -143 53 -149 71 -6 19 20 15 84 -14z m434 -194 c58 -29 70 -42
51 -55 -13 -7 -144 57 -149 73 -6 21 36 13 98 -18z m1240 -92 c-1 -19 -79
-138 -90 -138 -20 0 -9 41 25 95 33 51 65 72 65 43z m-822 -94 c56 -25 75 -45
54 -58 -13 -8 -142 56 -142 71 0 19 17 16 88 -13z m447 -183 c44 -7 56 -34 17
-39 -37 -6 -132 26 -132 44 0 13 7 15 38 9 20 -5 55 -11 77 -14z"/>
<path d="M13907 17566 c-66 -24 -116 -67 -163 -138 -62 -93 -94 -107 -169 -71
-31 15 -40 15 -68 4 -83 -34 -107 -28 -187 43 -135 120 -270 143 -425 73 -144
-67 -198 -194 -149 -356 24 -82 -1 -126 -89 -158 -61 -22 -131 -82 -159 -137
-38 -73 -20 -234 31 -280 17 -15 21 -15 57 0 99 41 247 -22 274 -117 12 -42
13 -191 0 -244 -4 -22 -14 -225 -20 -452 -10 -342 -9 -417 2 -440 27 -57 273
-174 587 -280 181 -61 196 -65 232 -54 22 7 46 22 54 35 36 55 177 539 201
692 8 55 -16 101 -64 121 -62 26 -219 13 -390 -32 -131 -35 -147 -37 -185 -25
-75 22 -137 117 -137 209 0 62 98 769 110 790 22 42 157 104 261 120 81 13
124 3 252 -59 176 -85 357 -113 485 -75 128 38 192 162 192 370 0 209 -79 354
-235 431 -66 33 -85 37 -167 41 -64 2 -105 -1 -131 -11z"/>
<path d="M27795 16423 c-66 -115 -218 -381 -339 -593 -226 -396 -241 -429
-205 -465 13 -13 20 -11 62 18 l48 32 279 604 c154 333 278 606 276 608 -2 2
-56 -90 -121 -204z"/>
<path d="M11494 15476 c-18 -8 -85 -50 -150 -94 -589 -394 -1171 -959 -1641
-1592 -619 -834 -1071 -1815 -1327 -2882 -71 -293 -142 -670 -131 -688 3 -6
15 -10 26 -10 10 0 19 -2 19 -4 0 -2 -11 -46 -25 -98 -40 -150 -57 -282 -59
-438 -1 -192 20 -291 95 -443 127 -256 366 -441 644 -498 86 -18 1060 -66
3435 -169 647 -28 775 -37 809 -54 46 -25 88 -81 105 -143 26 -92 95 -269 149
-383 37 -77 52 -123 57 -170 16 -147 -16 -904 -65 -1515 -41 -512 -125 -1340
-154 -1515 -5 -30 -6 -58 -3 -62 4 -4 54 -19 112 -33 129 -33 363 -45 445 -23
48 13 51 15 67 66 53 165 335 1331 413 1707 15 72 31 134 35 138 4 4 33 -25
66 -65 193 -242 368 -447 375 -441 4 5 92 329 197 722 l190 714 -265 453 -264
453 10 145 c6 80 11 226 11 326 0 366 -47 583 -149 688 -161 166 -1295 369
-3051 547 -359 36 -1083 105 -1106 105 -15 0 705 932 1125 1455 346 431 710
856 843 983 l35 33 58 -78 c200 -268 521 -575 826 -790 335 -236 732 -435
1106 -554 l72 -23 -26 -30 c-14 -16 -29 -40 -34 -52 l-8 -23 -303 -3 c-396 -4
-385 2 -443 -229 -19 -74 -35 -154 -35 -179 0 -63 28 -110 81 -137 l44 -22
1595 -10 c877 -5 1957 -10 2400 -10 443 -1 886 -4 985 -7 210 -8 252 0 302 52
51 54 52 86 7 267 -43 178 -63 222 -114 248 -32 17 -63 19 -372 19 -186 0
-338 3 -338 6 0 4 271 590 601 1303 331 713 653 1407 715 1542 125 270 132
299 91 360 -62 92 -173 104 -245 27 -20 -22 -292 -603 -1205 -2575 l-242 -523
-840 -1 c-1259 -2 -1789 2 -1798 11 -5 4 -30 43 -56 86 l-47 79 -130 75 c-225
130 -383 233 -589 388 -256 192 -393 311 -585 508 -291 299 -440 524 -605 913
-31 73 -65 149 -75 170 -10 20 -62 135 -115 256 -283 644 -449 929 -665 1145
-94 95 -149 139 -305 244 -104 71 -249 173 -322 227 -167 125 -190 135 -259
105z"/>
<path d="M23770 9548 c-84 -37 -247 -88 -351 -109 -256 -51 -291 -119 -344
-674 -8 -88 -35 -400 -60 -694 -50 -586 -50 -602 2 -708 14 -28 43 -68 63 -88
50 -49 73 -43 149 33 72 72 138 170 231 342 40 74 129 236 198 360 155 277
362 686 386 760 19 62 46 225 46 284 l0 39 -49 -65 c-36 -47 -61 -70 -91 -82
-84 -33 -166 -11 -233 64 -52 57 -70 102 -71 180 -1 62 2 70 68 190 38 69 77
140 88 158 11 17 18 32 16 31 -2 0 -23 -9 -48 -21z"/>
<path d="M15471 6944 c-28 -108 -311 -1265 -313 -1282 -2 -14 47 -74 162 -198
274 -296 778 -811 818 -836 28 -17 52 -23 97 -23 60 0 62 1 240 113 99 63 188
123 198 134 9 11 17 31 17 44 0 14 -164 305 -382 677 -209 359 -480 821 -601
1027 -120 206 -220 377 -222 379 -2 1 -8 -14 -14 -35z"/>
<path d="M18346 5113 c4 -16 21 -81 39 -146 l31 -119 35 28 c90 73 109 97 109
137 0 70 -23 91 -125 113 -91 20 -97 19 -89 -13z"/>
<path d="M17810 5115 c-180 -49 -285 -124 -678 -478 -92 -82 -183 -164 -202
-181 -19 -18 -43 -49 -52 -69 -44 -93 -163 -181 -313 -233 -44 -15 -81 -28
-83 -30 -9 -6 159 -399 180 -421 56 -60 183 -88 248 -53 14 7 267 207 563 443
456 365 538 434 533 451 -3 12 -35 145 -72 296 -37 151 -69 278 -73 281 -3 3
-26 1 -51 -6z"/>
<path d="M13165 4458 c-2 -7 -29 -96 -60 -198 -47 -155 -56 -194 -53 -243 6
-77 44 -132 117 -169 l55 -28 501 0 502 0 -4 48 c-3 36 14 112 70 322 l74 275
-41 4 c-45 3 -479 -17 -538 -25 -33 -5 -37 -9 -40 -37 -3 -27 -9 -34 -42 -45
-134 -43 -322 -34 -489 25 -49 18 -49 19 -30 71 3 6 0 12 -6 12 -7 0 -14 -6
-16 -12z"/>
<path d="M14785 4162 c-32 -130 -64 -261 -71 -289 l-12 -53 305 0 305 0 29 29
c44 45 41 94 -13 163 -104 133 -272 276 -408 347 l-76 40 -59 -237z"/>
</g>
</svg>
